<svg width="32" height="32" viewBox="0 0 32 32" fill="none" xmlns="http://www.w3.org/2000/svg">
<path d="M12.7319 27.6666C13.9844 27.6666 14.9999 26.6512 14.9999 25.3986C14.9999 24.146 13.9844 23.1306 12.7319 23.1306C11.4793 23.1306 10.4639 24.146 10.4639 25.3986C10.4639 26.6512 11.4793 27.6666 12.7319 27.6666Z" stroke="white" stroke-width="1.5" stroke-linecap="round" stroke-linejoin="round"/>
<path d="M22.6132 27.6666C23.8658 27.6666 24.8812 26.6512 24.8812 25.3986C24.8812 24.146 23.8658 23.1306 22.6132 23.1306C21.3606 23.1306 20.3452 24.146 20.3452 25.3986C20.3452 26.6512 21.3606 27.6666 22.6132 27.6666Z" stroke="white" stroke-width="1.5" stroke-linecap="round" stroke-linejoin="round"/>
<path d="M7.47458 7.40665L10.1546 15.892C10.5666 17.196 10.7719 17.848 11.1679 18.3306C11.5146 18.7573 11.9666 19.0866 12.4773 19.2906C13.0573 19.5213 13.7399 19.5213 15.1079 19.5213H20.2479C21.6159 19.5213 22.2986 19.5213 22.8773 19.2906C23.3893 19.0866 23.8399 18.7573 24.1879 18.3306C24.5826 17.848 24.7879 17.196 25.2012 15.892L25.7466 14.164L26.0666 13.1426L26.5079 11.7426C26.6654 11.2433 26.7031 10.7139 26.6178 10.1973C26.5326 9.68072 26.3269 9.19146 26.0173 8.7692C25.7077 8.34693 25.3031 8.00352 24.836 7.7668C24.369 7.53008 23.8528 7.40669 23.3293 7.40665H7.47458ZM7.47458 7.40665L7.45992 7.35731C7.40362 7.16873 7.34136 6.98196 7.27325 6.79731C7.00332 6.11403 6.54556 5.52108 5.95289 5.08695C5.36021 4.65282 4.65679 4.39524 3.92392 4.34398C3.78659 4.33331 3.63592 4.33331 3.33325 4.33331" stroke="white" stroke-width="1.5" stroke-linecap="round" stroke-linejoin="round"/>
</svg>
