<svg width="16" height="16" viewBox="0 0 16 16" fill="none" xmlns="http://www.w3.org/2000/svg">
<path d="M13.6 1.59998H2.4C1.76348 1.59998 1.15303 1.85283 0.702944 2.30292C0.252856 2.75301 0 3.36346 0 3.99998V12C0 12.6365 0.252856 13.2469 0.702944 13.697C1.15303 14.1471 1.76348 14.4 2.4 14.4H13.6C14.2365 14.4 14.847 14.1471 15.2971 13.697C15.7471 13.2469 16 12.6365 16 12V3.99998C16 3.36346 15.7471 2.75301 15.2971 2.30292C14.847 1.85283 14.2365 1.59998 13.6 1.59998ZM13.064 3.19998L8 6.99998L2.936 3.19998H13.064ZM13.6 12.8H2.4C2.18783 12.8 1.98434 12.7157 1.83431 12.5657C1.68429 12.4156 1.6 12.2121 1.6 12V4.19998L7.52 8.63998C7.65848 8.74383 7.8269 8.79998 8 8.79998C8.1731 8.79998 8.34152 8.74383 8.48 8.63998L14.4 4.19998V12C14.4 12.2121 14.3157 12.4156 14.1657 12.5657C14.0157 12.7157 13.8122 12.8 13.6 12.8Z" fill="#001640"/>
</svg>
