<svg width="33" height="33" viewBox="0 0 33 33" fill="none" xmlns="http://www.w3.org/2000/svg">
<path d="M23.9249 12.1V10.8428C23.9249 6.66434 20.6131 3.29999 16.4999 3.29999C12.3867 3.29999 9.0749 6.66434 9.0749 10.8428V12.1M23.9249 12.1C25.2862 12.1 26.3999 13.2314 26.3999 14.6143V27.1857C26.3999 28.5686 25.2862 29.7 23.9249 29.7H9.0749C7.71365 29.7 6.5999 28.5686 6.5999 27.1857V14.6143C6.5999 13.2314 7.71365 12.1 9.0749 12.1M23.9249 12.1H9.0749M16.4999 18.3857C15.1387 18.3857 14.0249 19.5171 14.0249 20.9C14.0249 22.2828 15.1387 23.4143 16.4999 23.4143C17.8612 23.4143 18.9749 22.2828 18.9749 20.9C18.9749 19.5171 17.8612 18.3857 16.4999 18.3857Z" stroke="#0B8DC7" stroke-width="2"/>
</svg>
