<svg width="33" height="33" viewBox="0 0 33 33" fill="none" xmlns="http://www.w3.org/2000/svg">
<path d="M12.8603 10.725V7.8375C12.8603 7.07168 13.1671 6.33724 13.7131 5.79573C14.2592 5.25421 14.9998 4.95 15.7721 4.95H25.9632C26.7355 4.95 27.4761 5.25421 28.0222 5.79573C28.5682 6.33724 28.875 7.07168 28.875 7.8375V25.1625C28.875 25.9283 28.5682 26.6628 28.0222 27.2043C27.4761 27.7458 26.7355 28.05 25.9632 28.05H15.7721C14.9998 28.05 14.2592 27.7458 13.7131 27.2043C13.1671 26.6628 12.8603 25.9283 12.8603 25.1625V22.275M21.5956 16.5H4.125M4.125 16.5L8.49265 12.1687M4.125 16.5L8.49265 20.8312" stroke="#0B8DC7" stroke-width="2" stroke-linecap="round" stroke-linejoin="round"/>
</svg>
