<svg width="39" height="39" viewBox="0 0 39 39" fill="none" xmlns="http://www.w3.org/2000/svg">
<path d="M19.5327 4.72878C14.154 4.72878 9.7827 9.10003 9.7827 14.4788V19.175C9.7827 20.1663 9.3602 21.6775 8.85645 22.5225L6.9877 25.6263C5.83395 27.5438 6.6302 29.6725 8.7427 30.3875C15.7465 32.7275 23.3027 32.7275 30.3065 30.3875C32.2727 29.7375 33.134 27.4138 32.0615 25.6263L30.1927 22.5225C29.7052 21.6775 29.2827 20.1663 29.2827 19.175V14.4788C29.2827 9.11628 24.8952 4.72878 19.5327 4.72878Z" fill="white"/>
<path d="M22.539 5.20003C22.0352 5.05378 21.5152 4.94003 20.979 4.87503C19.419 4.68003 17.924 4.79378 16.5265 5.20003C16.9977 3.99753 18.1677 3.15253 19.5327 3.15253C20.8977 3.15253 22.0677 3.99753 22.539 5.20003Z" fill="white"/>
<path d="M24.4077 30.9725C24.4077 33.6538 22.214 35.8475 19.5327 35.8475C18.2002 35.8475 16.9652 35.295 16.0877 34.4175C15.2102 33.54 14.6577 32.305 14.6577 30.9725" fill="white"/>
<path d="M8.85645 22.5225L9.07063 22.6515L9.07119 22.6505L8.85645 22.5225ZM6.9877 25.6263L6.77353 25.4973L6.77349 25.4974L6.9877 25.6263ZM8.7427 30.3875L8.66255 30.6243L8.66348 30.6246L8.7427 30.3875ZM30.3065 30.3875L30.228 30.1502L30.2272 30.1504L30.3065 30.3875ZM32.0615 25.6263L32.2758 25.4977L32.2756 25.4973L32.0615 25.6263ZM30.1927 22.5225L29.9761 22.6475L29.9785 22.6515L30.1927 22.5225ZM22.539 5.20003L22.4693 5.44011C22.5607 5.46667 22.6594 5.43894 22.7236 5.36859C22.7878 5.29824 22.8065 5.1975 22.7717 5.10881L22.539 5.20003ZM20.979 4.87503L20.9479 5.1231L20.9489 5.12321L20.979 4.87503ZM16.5265 5.20003L16.2937 5.10881C16.2589 5.19751 16.2776 5.29827 16.3419 5.36862C16.4061 5.43897 16.5048 5.46668 16.5962 5.44009L16.5265 5.20003ZM19.5327 4.47878C14.0159 4.47878 9.5327 8.96196 9.5327 14.4788H10.0327C10.0327 9.2381 14.292 4.97878 19.5327 4.97878V4.47878ZM9.5327 14.4788V19.175H10.0327V14.4788H9.5327ZM9.5327 19.175C9.5327 19.6405 9.43255 20.2425 9.26759 20.8368C9.10266 21.4309 8.87849 21.9973 8.64172 22.3945L9.07119 22.6505C9.33816 22.2027 9.57713 21.591 9.74938 20.9705C9.9216 20.3501 10.0327 19.7008 10.0327 19.175H9.5327ZM8.64228 22.3936L6.77353 25.4973L7.20188 25.7552L9.07063 22.6515L8.64228 22.3936ZM6.77349 25.4974C6.16127 26.5149 6.05816 27.6055 6.40592 28.5447C6.75356 29.4835 7.54217 30.2451 8.66255 30.6243L8.82285 30.1507C7.83074 29.8149 7.16497 29.1547 6.8748 28.371C6.58475 27.5877 6.66039 26.6552 7.20192 25.7552L6.77349 25.4974ZM8.66348 30.6246C15.7186 32.9818 23.3305 32.9818 30.3857 30.6246L30.2272 30.1504C23.2749 32.4732 15.7743 32.4732 8.82193 30.1504L8.66348 30.6246ZM30.3849 30.6249C32.5042 29.9243 33.4302 27.4217 32.2758 25.4977L31.8471 25.7549C32.8377 27.4059 32.0412 29.5507 30.228 30.1502L30.3849 30.6249ZM32.2756 25.4973L30.4069 22.3936L29.9785 22.6515L31.8473 25.7552L32.2756 25.4973ZM30.4093 22.3976C30.1795 21.9994 29.959 21.432 29.796 20.8375C29.6329 20.2427 29.5327 19.6406 29.5327 19.175H29.0327C29.0327 19.7007 29.1438 20.3498 29.3138 20.9697C29.4839 21.5899 29.7184 22.2006 29.9762 22.6475L30.4093 22.3976ZM29.5327 19.175V14.4788H29.0327V19.175H29.5327ZM29.5327 14.4788C29.5327 8.97821 25.0333 4.47878 19.5327 4.47878V4.97878C24.7571 4.97878 29.0327 9.25435 29.0327 14.4788H29.5327ZM22.6087 4.95994C22.094 4.81054 21.5607 4.69371 21.009 4.62684L20.9489 5.12321C21.4697 5.18634 21.9764 5.29702 22.4693 5.44011L22.6087 4.95994ZM21.01 4.62696C19.4181 4.42797 17.8887 4.54368 16.4567 4.95996L16.5962 5.44009C17.9592 5.04387 19.4198 4.93208 20.9479 5.1231L21.01 4.62696ZM16.7592 5.29125C17.194 4.18184 18.2734 3.40253 19.5327 3.40253V2.90253C18.062 2.90253 16.8014 3.81321 16.2937 5.10881L16.7592 5.29125ZM19.5327 3.40253C20.792 3.40253 21.8714 4.18184 22.3062 5.29125L22.7717 5.10881C22.264 3.81322 21.0034 2.90253 19.5327 2.90253V3.40253ZM24.1577 30.9725C24.1577 33.5157 22.0759 35.5975 19.5327 35.5975V36.0975C22.352 36.0975 24.6577 33.7918 24.6577 30.9725H24.1577ZM19.5327 35.5975C18.2694 35.5975 17.0972 35.0734 16.2645 34.2408L15.9109 34.5943C16.8333 35.5166 18.131 36.0975 19.5327 36.0975V35.5975ZM16.2645 34.2408C15.4318 33.4081 14.9077 32.2359 14.9077 30.9725H14.4077C14.4077 32.3742 14.9886 33.672 15.9109 34.5943L16.2645 34.2408Z" fill="black"/>
</svg>
