<svg width="16" height="16" viewBox="0 0 16 16" fill="none" xmlns="http://www.w3.org/2000/svg">
<path d="M11.0023 0H4.9978C4.1693 0 3.4978 0.6715 3.4978 1.5V14.5C3.4978 15.3285 4.1693 16 4.9978 16H11.0023C11.8308 16 12.5023 15.3285 12.5023 14.5V1.5C12.5023 0.6715 11.8308 0 11.0023 0ZM11.5023 14.5C11.5023 14.776 11.2783 15 11.0023 15H4.9978C4.7218 15 4.4978 14.776 4.4978 14.5V1.5C4.4978 1.224 4.7218 1 4.9978 1H11.0023C11.2783 1 11.5023 1.224 11.5023 1.5V14.5ZM8.0008 12.5028C7.44955 12.5028 7.0033 12.9495 7.0033 13.5C7.0033 14.0505 7.4498 14.4975 8.0008 14.4975C8.55205 14.4975 8.9983 14.0505 8.9983 13.5C8.9983 12.9495 8.55205 12.5028 8.0008 12.5028ZM9.0008 1.5H7.0008C6.7248 1.5 6.5008 1.724 6.5008 2C6.5008 2.276 6.7248 2.5 7.0008 2.5H9.0008C9.2768 2.5 9.5008 2.276 9.5008 2C9.5008 1.724 9.2768 1.5 9.0008 1.5Z" fill="#001640"/>
</svg>
